<?xml version="1.0" encoding="utf-8"?>
<!-- Generator: Adobe Illustrator 16.0.4, SVG Export Plug-In . SVG Version: 6.00 Build 0)  -->
<!DOCTYPE svg PUBLIC "-//W3C//DTD SVG 1.1//EN" "http://www.w3.org/Graphics/SVG/1.1/DTD/svg11.dtd">
<svg version="1.1" id="Ebene_1" xmlns="http://www.w3.org/2000/svg" xmlns:xlink="http://www.w3.org/1999/xlink" x="0px" y="0px"
	 width="350px" height="84.21px" viewBox="0 7.594 20 4.812" enable-background="new 0 7.594 20 4.812" xml:space="preserve">
<g>
	<g>
		<defs>
			<rect id="SVGID_1_" y="7.594" width="20" height="4.812"/>
		</defs>
		<clipPath id="SVGID_2_">
			<use xlink:href="#SVGID_1_"  overflow="visible"/>
		</clipPath>
		<path clip-path="url(#SVGID_2_)" fill="#FFFFFF" d="M18.408,9.228c-0.006-0.17-0.047-0.288-0.124-0.364
			c-0.082-0.077-0.171-0.124-0.282-0.141c-0.105-0.018-0.205-0.023-0.287-0.023h-0.588v1.046h0.594
			c0.082,0.006,0.176-0.006,0.281-0.024s0.2-0.064,0.282-0.135C18.361,9.515,18.408,9.392,18.408,9.228 M14.348,9.962
			c0-0.106-0.006-0.211-0.018-0.312s-0.035-0.194-0.064-0.282c-0.076-0.206-0.176-0.353-0.3-0.446
			c-0.123-0.094-0.241-0.147-0.353-0.17s-0.193-0.029-0.24-0.029c-0.266-0.006-0.494,0.094-0.688,0.293
			c-0.194,0.2-0.295,0.529-0.307,0.987c0,0.394,0.083,0.705,0.248,0.923c0.164,0.217,0.41,0.328,0.752,0.334
			c0.293,0,0.528-0.111,0.705-0.334C14.254,10.714,14.342,10.391,14.348,9.962 M10.993,9.521c-0.042,0.065-0.089,0.124-0.136,0.17
			c-0.059,0.059-0.117,0.106-0.182,0.141c-0.059,0.035-0.129,0.07-0.2,0.1c0.094,0.023,0.182,0.053,0.264,0.088
			c0.07,0.029,0.141,0.076,0.217,0.141c0-0.047-0.006-0.1,0-0.147C10.951,9.844,10.963,9.68,10.993,9.521 M9.853,10.861
			c-0.006-0.136-0.041-0.242-0.105-0.301c-0.065-0.064-0.141-0.105-0.218-0.117c-0.082-0.018-0.146-0.023-0.194-0.023H8.472v0.875
			h0.893c0.065,0,0.129-0.006,0.194-0.023c0.064-0.018,0.123-0.053,0.176-0.111c0.036-0.035,0.065-0.076,0.083-0.129
			C9.841,10.979,9.853,10.92,9.853,10.861 M8.484,9.474h0.787c0.047,0,0.105,0,0.182-0.012c0.07-0.012,0.135-0.047,0.194-0.1
			C9.706,9.31,9.735,9.222,9.735,9.098C9.724,8.922,9.671,8.81,9.565,8.769c-0.1-0.041-0.188-0.064-0.265-0.059H8.484V9.474z
			 M5.323,10.626L4.847,9.04l-0.494,1.586H5.323z M18.907,10.443L20,12.26h-1.58l-0.876-1.587h-0.423v1.587h-1.428v-1.622
			c-0.041,0.158-0.094,0.312-0.158,0.47c-0.165,0.37-0.424,0.676-0.781,0.922c-0.359,0.242-0.829,0.371-1.416,0.383
			c-0.611-0.012-1.088-0.141-1.439-0.395c-0.277-0.199-0.494-0.434-0.641-0.705c-0.012,0.054-0.029,0.112-0.047,0.165
			c-0.054,0.159-0.136,0.3-0.254,0.417c-0.176,0.165-0.363,0.271-0.569,0.312c-0.206,0.042-0.399,0.06-0.582,0.06H7.333H7.051h-1.24
			l-0.2-0.623H4.048l-0.2,0.623H3.161h-0.84H0V7.758h1.422v3.367h1.333l1.287-3.367h1.622l1.404,3.749V7.758h2.661
			c0.147,0,0.335,0.024,0.547,0.065c0.217,0.041,0.411,0.141,0.593,0.299c0.1,0.1,0.177,0.218,0.229,0.353
			c0.053,0.135,0.077,0.276,0.077,0.423V8.91c0.012-0.035,0.029-0.064,0.047-0.1c0.176-0.364,0.445-0.658,0.805-0.881
			c0.357-0.223,0.811-0.335,1.352-0.341c0.587,0.012,1.062,0.135,1.416,0.376c0.352,0.241,0.61,0.541,0.764,0.905
			c0.064,0.146,0.111,0.293,0.152,0.44V7.758h2.244c0.218,0,0.418,0.006,0.611,0.03c0.193,0.018,0.358,0.059,0.5,0.111
			c0.199,0.088,0.352,0.206,0.469,0.353c0.112,0.147,0.194,0.306,0.242,0.47c0.047,0.165,0.07,0.323,0.07,0.47
			c0.006,0.094-0.012,0.224-0.053,0.394s-0.136,0.341-0.295,0.511c-0.088,0.094-0.182,0.165-0.275,0.212
			C19.113,10.361,19.013,10.402,18.907,10.443"/>
	</g>
</g>
</svg>
